{"accessors":[{"name":"Web_Circle-Mesh_positions","componentType":5126,"count":13138,"min":[-11.182918548583984,-3.304605007171631,-12.251429557800293],"max":[13.237306594848633,1.9744529724121094,11.14922046661377],"type":"VEC3","bufferView":0,"byteOffset":0},{"name":"Web_Circle-Mesh_normals","componentType":5126,"count":13138,"min":[-1,-0.9998999834060669,-0.9984999895095825],"max":[1,0.9998999834060669,0.9951000213623047],"type":"VEC3","bufferView":0,"byteOffset":279972},{"name":"Web_Circle-Mesh_0_indices","componentType":5123,"count":19968,"min":[0],"max":[13137],"type":"SCALAR","bufferView":2,"byteOffset":0},{"name":"Spider_Plane-Mesh_positions","componentType":5126,"count":10193,"min":[-3.5515620708465576,-2.0597479343414307,-6.360282897949219],"max":[7.766207218170166,2.8533220291137695,6.288620948791504],"type":"VEC3","bufferView":0,"byteOffset":157656},{"name":"Spider_Plane-Mesh_normals","componentType":5126,"count":10193,"min":[-0.9986000061035156,-0.9998000264167786,-0.9998999834060669],"max":[0.9991000294685364,1,0.9976999759674072],"type":"VEC3","bufferView":0,"byteOffset":437628},{"name":"Spider_Plane-Mesh_texcoords","componentType":5126,"count":10193,"min":[0.00044800000614486635,0.0036949999630451202],"max":[0.941694974899292,0.9993339776992798],"type":"VEC2","bufferView":1,"byteOffset":0},{"name":"Spider_Plane-Mesh_0_indices","componentType":5123,"count":54144,"min":[0],"max":[10192],"type":"SCALAR","bufferView":2,"byteOffset":39936}],"asset":{"generator":"obj2gltf","version":"2.0"},"buffers":[{"name":"input","byteLength":789712,"uri":"data:application/octet-stream;base64,"}],"bufferViews":[{"name":"bufferView_0","buffer":0,"byteLength":559944,"byteOffset":0,"byteStride":12,"target":34962},{"name":"bufferView_1","buffer":0,"byteLength":81544,"byteOffset":559944,"byteStride":8,"target":34962},{"name":"bufferView_2","buffer":0,"byteLength":148224,"byteOffset":641488,"target":34963}],"materials":[{"name":"Web","pbrMetallicRoughness":{"baseColorFactor":[0.5,0.5,0.5,1],"metallicFactor":0,"roughnessFactor":1},"emissiveFactor":[0,0,0],"alphaMode":"OPAQUE","doubleSided":false},{"name":"Chitin","pbrMetallicRoughness":{"baseColorFactor":[0.5,0.5,0.5,1],"metallicFactor":0,"roughnessFactor":1},"emissiveFactor":[0,0,0],"alphaMode":"OPAQUE","doubleSided":false}],"meshes":[{"name":"Web_Circle-Mesh","primitives":[{"attributes":{"POSITION":0,"NORMAL":1},"indices":2,"material":0,"mode":4}]},{"name":"Spider_Plane-Mesh","primitives":[{"attributes":{"POSITION":3,"NORMAL":4,"TEXCOORD_0":5},"indices":6,"material":1,"mode":4}]}],"nodes":[{"name":"Web_Circle","mesh":0},{"name":"Spider_Plane","mesh":1}],"scene":0,"scenes":[{"nodes":[0,1]}]}
